<svg width="241" height="40" viewBox="0 0 261 60" fill="none" style="background-color: #180427; display: flex; align-items: center; justify-content: center; margin: 0 auto;" xmlns="http://www.w3.org/2000/svg" preserveAspectRatio="xMidYMid meet">
<title>Scalekarma</title>
<g transform="translate(10, 10)">
<path d="M9.875 40H5.33333C1.77778 33.5278 0 26.8611 0 20C0 13.1389 1.77778 6.47222 5.33333 0H9.875C6.51389 6.52778 4.83333 13.1944 4.83333 20C4.83333 26.8056 6.51389 33.4722 9.875 40Z" fill="white"/>
<path d="M19.1878 32.1722C16.5212 32.1722 14.3128 31.5056 12.5628 30.1722C10.8128 28.8389 9.88227 27.1445 9.77116 25.0889H15.7295C15.8406 25.9778 16.2295 26.6583 16.8962 27.1306C17.5628 27.575 18.3823 27.7972 19.3545 27.7972C21.16 27.7972 22.0628 27.2417 22.0628 26.1306C22.0628 25.575 21.8545 25.1583 21.4378 24.8806C21.0489 24.575 20.3823 24.2972 19.4378 24.0472L15.5212 23.0472C13.7434 22.575 12.41 21.7833 11.5212 20.6722C10.66 19.5333 10.2295 18.1722 10.2295 16.5889C10.2295 14.7833 10.9795 13.3111 12.4795 12.1722C14.0073 11.0056 16.0489 10.4222 18.6045 10.4222C20.9378 10.4222 22.8823 11.0195 24.4378 12.2139C25.9934 13.3806 26.8545 14.9778 27.0212 17.0056H21.2712C21.0212 15.5889 20.1045 14.8806 18.5212 14.8806C17.7712 14.8806 17.1739 15.0195 16.7295 15.2972C16.285 15.575 16.0628 15.9639 16.0628 16.4639C16.0628 17.3806 16.8545 18.0195 18.4378 18.3806L22.1045 19.3806C24.1323 19.8806 25.6045 20.6722 26.5212 21.7556C27.4378 22.8111 27.8962 24.1722 27.8962 25.8389C27.8962 27.7556 27.0767 29.2972 25.4378 30.4639C23.8267 31.6028 21.7434 32.1722 19.1878 32.1722Z" fill="white"/>
<path d="M40.3952 32.1722C37.2563 32.1722 34.6452 31.1306 32.5619 29.0472C30.4785 26.9361 29.4369 24.3528 29.4369 21.2972C29.4369 18.2417 30.4785 15.6722 32.5619 13.5889C34.6452 11.4778 37.2563 10.4222 40.3952 10.4222C43.173 10.4222 45.4924 11.2 47.3535 12.7556C49.2424 14.3111 50.4785 16.3389 51.0619 18.8389H45.1452C44.2285 16.6722 42.6452 15.5889 40.3952 15.5889C38.8674 15.5889 37.6174 16.1167 36.6452 17.1722C35.673 18.2 35.1868 19.575 35.1868 21.2972C35.1868 23.0195 35.673 24.4083 36.6452 25.4639C37.6174 26.4917 38.8674 27.0056 40.3952 27.0056C42.6452 27.0056 44.2285 25.9222 45.1452 23.7556H51.0619C50.4785 26.2556 49.2424 28.2833 47.3535 29.8389C45.4924 31.3945 43.173 32.1722 40.3952 32.1722Z" fill="white"/>
<path d="M62.1484 32.1722C59.3984 32.1722 57.079 31.1028 55.1901 28.9639C53.3012 26.825 52.3568 24.2695 52.3568 21.2972C52.3568 18.325 53.3012 15.7695 55.1901 13.6306C57.079 11.4917 59.3984 10.4222 62.1484 10.4222C63.4818 10.4222 64.6762 10.7 65.7318 11.2556C66.7873 11.8111 67.5929 12.4639 68.1485 13.2139V10.8806H73.8568V31.7139H68.1485V29.3806C67.5929 30.1306 66.7873 30.7833 65.7318 31.3389C64.6762 31.8945 63.4818 32.1722 62.1484 32.1722ZM59.5234 25.3806C60.4957 26.4361 61.7734 26.9639 63.3568 26.9639C64.9401 26.9639 66.204 26.4361 67.1485 25.3806C68.1207 24.325 68.6068 22.9639 68.6068 21.2972C68.6068 19.6306 68.1207 18.2695 67.1485 17.2139C66.204 16.1583 64.9401 15.6306 63.3568 15.6306C61.7734 15.6306 60.4957 16.1583 59.5234 17.2139C58.579 18.2695 58.1068 19.6306 58.1068 21.2972C58.1068 22.9639 58.579 24.325 59.5234 25.3806Z" fill="white"/>
<path d="M78.1563 31.7139V0.463895H83.8646V31.7139H78.1563Z" fill="white"/>
<path d="M97.6794 32.1722C94.4849 32.1722 91.8599 31.1445 89.8044 29.0889C87.7766 27.0333 86.7627 24.4222 86.7627 21.2556C86.7627 18.1445 87.7905 15.5611 89.846 13.5056C91.9294 11.45 94.5544 10.4222 97.721 10.4222C100.915 10.4222 103.568 11.5195 105.679 13.7139C107.79 15.8806 108.763 18.8528 108.596 22.6306H92.346C92.4572 23.9361 92.9988 25.0333 93.971 25.9222C94.9433 26.7833 96.2766 27.2139 97.971 27.2139C98.9988 27.2139 99.9016 27.0195 100.679 26.6306C101.485 26.2139 102.054 25.6445 102.388 24.9222H108.346C107.735 27.0611 106.457 28.8111 104.513 30.1722C102.568 31.5056 100.29 32.1722 97.6794 32.1722ZM97.5544 15.0472C96.2488 15.0472 95.1516 15.3945 94.2627 16.0889C93.4016 16.7556 92.8322 17.6861 92.5544 18.8806H102.346C102.04 17.575 101.429 16.6167 100.513 16.0056C99.6238 15.3667 98.6377 15.0472 97.5544 15.0472Z" fill="white"/>
<path d="M127.175 31.7139L118.675 22.1306V31.7139H112.967V0.463895H118.675V18.5472L125.425 10.8806H132.3L124.05 20.2556L134.217 31.7139H127.175ZM142.107 32.1722C139.357 32.1722 137.038 31.1028 135.149 28.9639C133.26 26.825 132.315 24.2695 132.315 21.2972C132.315 18.325 133.26 15.7695 135.149 13.6306C137.038 11.4917 139.357 10.4222 142.107 10.4222C143.44 10.4222 144.635 10.7 145.69 11.2556C146.746 11.8111 147.552 12.4639 148.107 13.2139V10.8806H153.815V31.7139H148.107V29.3806C147.552 30.1306 146.746 30.7833 145.69 31.3389C144.635 31.8945 143.44 32.1722 142.107 32.1722ZM139.482 25.3806C140.454 26.4361 141.732 26.9639 143.315 26.9639C144.899 26.9639 146.163 26.4361 147.107 25.3806C148.079 24.325 148.565 22.9639 148.565 21.2972C148.565 19.6306 148.079 18.2695 147.107 17.2139C146.163 16.1583 144.899 15.6306 143.315 15.6306C141.732 15.6306 140.454 16.1583 139.482 17.2139C138.538 18.2695 138.065 19.6306 138.065 21.2972C138.065 22.9639 138.538 24.325 139.482 25.3806ZM158.115 31.7139V10.8806H163.823V14.2139C164.184 13.1861 164.837 12.3389 165.782 11.6722C166.754 10.9778 167.823 10.6306 168.99 10.6306C169.712 10.6306 170.351 10.7139 170.907 10.8806V16.6722C169.99 16.3667 169.129 16.2139 168.323 16.2139C166.962 16.2139 165.865 16.7139 165.032 17.7139C164.226 18.6861 163.823 20.0333 163.823 21.7556V31.7139H158.115ZM199.554 31.7139V20.5889C199.554 17.2833 198.47 15.6306 196.304 15.6306C195.054 15.6306 194.054 16.1028 193.304 17.0472C192.581 17.9917 192.193 19.3945 192.137 21.2556V31.7139H186.429V20.5889C186.429 17.2833 185.345 15.6306 183.179 15.6306C181.901 15.6306 180.887 16.1306 180.137 17.1306C179.387 18.1306 179.012 19.6028 179.012 21.5472V31.7139H173.304V10.8806H179.012V13.2556C180.318 11.3667 182.165 10.4222 184.554 10.4222C187.47 10.4222 189.623 11.7 191.012 14.2556C191.623 13.0611 192.54 12.1306 193.762 11.4639C194.984 10.7695 196.22 10.4222 197.47 10.4222C199.943 10.4222 201.859 11.2417 203.22 12.8806C204.581 14.5195 205.262 16.7695 205.262 19.6306V31.7139H199.554ZM217.703 32.1722C214.953 32.1722 212.633 31.1028 210.744 28.9639C208.856 26.825 207.911 24.2695 207.911 21.2972C207.911 18.325 208.856 15.7695 210.744 13.6306C212.633 11.4917 214.953 10.4222 217.703 10.4222C219.036 10.4222 220.231 10.7 221.286 11.2556C222.342 11.8111 223.147 12.4639 223.703 13.2139V10.8806H229.411V31.7139H223.703V29.3806C223.147 30.1306 222.342 30.7833 221.286 31.3389C220.231 31.8945 219.036 32.1722 217.703 32.1722ZM215.078 25.3806C216.05 26.4361 217.328 26.9639 218.911 26.9639C220.494 26.9639 221.758 26.4361 222.703 25.3806C223.675 24.325 224.161 22.9639 224.161 21.2972C224.161 19.6306 223.675 18.2695 222.703 17.2139C221.758 16.1583 220.494 15.6306 218.911 15.6306C217.328 15.6306 216.05 16.1583 215.078 17.2139C214.133 18.2695 213.661 19.6306 213.661 21.2972C213.661 22.9639 214.133 24.325 215.078 25.3806ZM235.442 40H230.901C234.262 33.4722 235.942 26.8056 235.942 20C235.942 13.1944 234.262 6.52778 230.901 0H235.442C238.998 6.47222 240.776 13.1389 240.776 20C240.776 26.8611 238.998 33.5278 235.442 40Z" fill="#CAFD73"/>
</g>
</svg>
